<?xml version="1.0" encoding="UTF-8" standalone="no"?>
<!-- Created with Inkscape (http://www.inkscape.org/) -->

<svg
   width="360"
   height="112"
   viewBox="0 0 90 28"
   version="1.1"
   id="svg1"
   inkscape:export-filename="PlayVek.svg"
   inkscape:export-xdpi="96"
   inkscape:export-ydpi="96"
   inkscape:version="1.4.2 (f4327f4, 2025-05-13)"
   sodipodi:docname="wordmark.svg"
   xmlns:inkscape="http://www.inkscape.org/namespaces/inkscape"
   xmlns:sodipodi="http://sodipodi.sourceforge.net/DTD/sodipodi-0.dtd"
   xmlns="http://www.w3.org/2000/svg"
   xmlns:svg="http://www.w3.org/2000/svg">
  <sodipodi:namedview
     id="namedview1"
     pagecolor="#505050"
     bordercolor="#eeeeee"
     borderopacity="1"
     inkscape:showpageshadow="0"
     inkscape:pageopacity="0"
     inkscape:pagecheckerboard="0"
     inkscape:deskcolor="#505050"
     inkscape:document-units="px"
     showgrid="true"
     inkscape:zoom="1.4142136"
     inkscape:cx="185.96908"
     inkscape:cy="17.324116"
     inkscape:window-width="1920"
     inkscape:window-height="1027"
     inkscape:window-x="-8"
     inkscape:window-y="399"
     inkscape:window-maximized="1"
     inkscape:current-layer="svg1">
    <inkscape:grid
       id="grid1"
       units="px"
       originx="0"
       originy="0"
       spacingx="1"
       spacingy="1"
       empcolor="#0099e5"
       empopacity="0.30196078"
       color="#0099e5"
       opacity="0.14901961"
       empspacing="4"
       dotted="false"
       gridanglex="30"
       gridanglez="30"
       visible="true" />
  </sodipodi:namedview>
  <defs
     id="defs1" />
  <path
     id="rect45"
     style="opacity:1;fill:#ffffff;fill-opacity:1;stroke:#00a0f0;stroke-width:0;stroke-linejoin:bevel"
     d="M 4,4 V 24 H 8 V 4 Z m 4,20 h 5.65625 L 18,19.65625 22.34375,24 H 28 L 20.828125,16.828125 21.65625,16 22.242188,15.414062 25.65625,12 28,9.65625 V 8 4 l -4,4 -4,4 -0.585938,0.585938 -2.828124,2.828124 L 16,16 Z M 10,4 v 4 h 11.171875 l 4,-4 z m 0,8 v 4 h 3.171875 l 4,-4 z M 28,12.484375 24.484375,16 H 28 Z" />
  <path
     id="text94"
     style="font-style:normal;font-variant:normal;font-weight:normal;font-stretch:normal;font-size:17px;font-family:'Chakra Petch';-inkscape-font-specification:'Chakra Petch, Normal';font-variant-ligatures:normal;font-variant-caps:normal;font-variant-numeric:normal;font-variant-east-asian:normal;letter-spacing:-1px;word-spacing:0px;opacity:1;fill:#ffffff;fill-opacity:1;stroke:#00a0f0;stroke-width:0;stroke-linejoin:bevel"
     inkscape:transform-center-x="-21.627907"
     inkscape:transform-center-y="6.0465116"
     d="M 47.839844,3.7578125 V 15.896484 h 1.257812 v -3.841796 h 1.988282 l 2.652343,3.841796 h 1.074219 0.320312 1.023438 l 1.103516,-3.21289 h 4.964843 l 1.105469,3.21289 h 1.341797 L 60.439453,3.9960938 H 59.044922 L 54.921875,15.589844 52.107422,11.509766 54.962891,7.4296875 H 53.568359 L 51.085938,10.931641 H 49.097656 V 3.7578125 Z M 30,3.9960938 34.199219,15.896484 H 35.59375 L 39.792969,3.9960938 h -1.34375 L 34.914062,14.349609 h -0.03516 L 31.34375,3.9960938 Z m 29.724609,1.4960937 h 0.03516 l 2.089843,6.0683595 h -4.197265 z m -19.027343,1.9375 -1.564454,1.5644531 v 5.3378904 l 1.564454,1.564453 h 4.265625 l 1.564453,-1.564453 v -1.037109 h -1.257813 v 0.646484 l -0.849609,0.832032 h -3.179688 l -0.849609,-0.832032 v -1.904297 h 6.154297 V 8.9941406 L 44.962891,7.4296875 Z m 24.589843,0 v 8.4667965 h 1.257813 v -5.507812 l 1.835937,-1.8359376 h 1.427735 l 0.851562,0.8320312 v 6.5117184 h 1.222656 V 9.7421875 l 1.191407,-1.1894531 h 1.86914 l 0.84961,0.8320312 v 6.5117184 h 1.257812 V 8.9941406 l -1.5625,-1.5644531 H 72.818359 L 71.492188,8.7558594 70.166016,7.4296875 H 68.142578 L 66.511719,9.0625 V 7.4296875 Z m 13.228516,0 V 19.5 h 1.259766 v -4.828125 l 1.392578,1.224609 h 3.263672 l 1.564453,-1.564453 V 8.9941406 L 84.431641,7.4296875 H 81.253906 L 79.740234,8.9433594 V 7.4296875 Z M 41.240234,8.5527344 h 3.195313 l 0.851562,0.8320312 V 10.949219 H 40.390625 V 9.3847656 Z m 40.353516,0 h 2.294922 l 0.849609,0.8320312 v 4.5566404 l -0.849609,0.832032 H 81.40625 l -1.630859,-1.478516 v -2.923828 z" />
</svg>
