<?xml version="1.0" encoding="UTF-8" standalone="no"?>
<!-- Created with Inkscape (http://www.inkscape.org/) -->

<svg
   width="512"
   height="512"
   viewBox="0 0 512 512"
   version="1.1"
   id="svg1"
   inkscape:version="1.4.2 (f4327f4, 2025-05-13)"
   sodipodi:docname="emptycover.svg"
   xmlns:inkscape="http://www.inkscape.org/namespaces/inkscape"
   xmlns:sodipodi="http://sodipodi.sourceforge.net/DTD/sodipodi-0.dtd"
   xmlns="http://www.w3.org/2000/svg"
   xmlns:svg="http://www.w3.org/2000/svg">
  <sodipodi:namedview
     id="namedview1"
     pagecolor="#505050"
     bordercolor="#eeeeee"
     borderopacity="1"
     inkscape:showpageshadow="0"
     inkscape:pageopacity="0"
     inkscape:pagecheckerboard="0"
     inkscape:deskcolor="#505050"
     inkscape:document-units="px"
     showgrid="true"
     inkscape:zoom="0.14242263"
     inkscape:cx="-1825.5526"
     inkscape:cy="551.17645"
     inkscape:window-width="1920"
     inkscape:window-height="1027"
     inkscape:window-x="-8"
     inkscape:window-y="399"
     inkscape:window-maximized="1"
     inkscape:current-layer="layer1">
    <inkscape:grid
       id="grid1"
       units="px"
       originx="0"
       originy="0"
       spacingx="16"
       spacingy="16"
       empcolor="#0099e5"
       empopacity="0.30196078"
       color="#0099e5"
       opacity="0.14901961"
       empspacing="4"
       enabled="true"
       visible="true" />
  </sodipodi:namedview>
  <defs
     id="defs1" />
  <g
     inkscape:label="Layer 1"
     inkscape:groupmode="layer"
     id="layer1">
    <path
       d="M 0,0 V 512 H 512 V 0 Z M 16,16 H 496 V 496 H 16 Z"
       style="fill:#c0c0c0;stroke:none;stroke-width:2;stroke-opacity:0.24822699;paint-order:stroke fill markers;fill-opacity:0.50236404"
       id="path2" />
    <path
       id="path3"
       style="fill:#c0c0c0;stroke:none;stroke-width:2;stroke-opacity:0.24822699;paint-order:stroke fill markers;fill-opacity:0.50236404"
       d="M 128 160 L 32 256 L 32 480 L 480 480 L 480 288 L 384 208 L 288 320 L 128 160 z M 299.82812 431.5625 L 306.4375 431.5625 L 306.4375 438.6875 L 310.58594 438.6875 L 310.58594 443.44531 L 306.4375 443.44531 L 306.4375 456.94531 C 306.4375 457.99219 306.57031 458.64844 306.83594 458.91406 C 307.10156 459.16406 307.91406 459.28906 309.27344 459.28906 L 309.90625 459.28906 C 310.14062 459.27344 310.36719 459.25781 310.58594 459.24219 L 310.58594 464.23438 L 307.42188 464.35156 C 304.26562 464.46094 302.10938 463.91406 300.95312 462.71094 C 300.20312 461.94531 299.82812 460.76562 299.82812 459.17188 L 299.82812 443.44531 L 296.26562 443.44531 L 296.26562 438.6875 L 299.82812 438.6875 L 299.82812 431.5625 z M 90.921875 437.63281 C 95.3125 437.63281 98.585938 438.98438 100.74219 441.6875 C 102.89844 444.39062 103.97656 447.58594 103.97656 451.27344 C 103.97656 455.02344 102.89844 458.23438 100.74219 460.90625 C 98.585938 463.5625 95.3125 464.89062 90.921875 464.89062 C 86.53125 464.89062 83.257812 463.5625 81.101562 460.90625 C 78.945312 458.23438 77.867188 455.02344 77.867188 451.27344 C 77.867188 447.58594 78.945312 444.39062 81.101562 441.6875 C 83.257812 438.98438 86.53125 437.63281 90.921875 437.63281 z M 157.27344 437.63281 C 161.66406 437.63281 164.9375 438.98438 167.09375 441.6875 C 169.25 444.39062 170.32812 447.58594 170.32812 451.27344 C 170.32812 455.02344 169.25 458.23438 167.09375 460.90625 C 164.9375 463.5625 161.66406 464.89062 157.27344 464.89062 C 152.88281 464.89062 149.60938 463.5625 147.45312 460.90625 C 145.29688 458.23438 144.21875 455.02344 144.21875 451.27344 C 144.21875 447.58594 145.29688 444.39062 147.45312 441.6875 C 149.60938 438.98438 152.88281 437.63281 157.27344 437.63281 z M 209.88281 437.77344 C 212.00781 437.77344 213.92188 438.17188 215.625 438.96875 C 217.32812 439.76562 218.73438 441.02344 219.84375 442.74219 C 220.84375 444.25781 221.49219 446.01562 221.78906 448.01562 C 221.96094 449.1875 222.03125 450.875 222 453.07812 L 204.51562 453.07812 C 204.60938 455.64062 205.41406 457.4375 206.92969 458.46875 C 207.85156 459.10938 208.96094 459.42969 210.25781 459.42969 C 211.63281 459.42969 212.75 459.03906 213.60938 458.25781 C 214.07812 457.83594 214.49219 457.25 214.85156 456.5 L 221.67188 456.5 C 221.5 458.01562 220.71094 459.55469 219.30469 461.11719 C 217.11719 463.60156 214.05469 464.84375 210.11719 464.84375 C 206.86719 464.84375 204 463.79688 201.51562 461.70312 C 199.03125 459.60938 197.78906 456.20312 197.78906 451.48438 C 197.78906 447.0625 198.90625 443.67188 201.14062 441.3125 C 203.39062 438.95312 206.30469 437.77344 209.88281 437.77344 z M 65.273438 437.84375 C 67.914062 437.84375 70.070312 438.53906 71.742188 439.92969 C 73.429688 441.30469 74.273438 443.59375 74.273438 446.79688 L 74.273438 464 L 67.429688 464 L 67.429688 448.46094 C 67.429688 447.11719 67.25 446.08594 66.890625 445.36719 C 66.234375 444.05469 64.984375 443.39844 63.140625 443.39844 C 60.875 443.39844 59.320312 444.35938 58.476562 446.28125 C 58.039062 447.29688 57.820312 448.59375 57.820312 450.17188 L 57.820312 464 L 51.164062 464 L 51.164062 438.5 L 57.609375 438.5 L 57.609375 442.22656 C 58.46875 440.91406 59.28125 439.96875 60.046875 439.39062 C 61.421875 438.35938 63.164062 437.84375 65.273438 437.84375 z M 130.71094 437.84375 C 133.91406 437.84375 136.53125 438.5625 138.5625 440 C 140.60938 441.4375 141.82031 443.97656 142.19531 447.61719 L 135.35156 447.61719 C 135.22656 446.66406 134.90625 445.80469 134.39062 445.03906 C 133.64062 444.00781 132.47656 443.49219 130.89844 443.49219 C 128.64844 443.49219 127.10938 444.60938 126.28125 446.84375 C 125.84375 448.03125 125.625 449.60938 125.625 451.57812 C 125.625 453.45312 125.84375 454.96094 126.28125 456.10156 C 127.07812 458.22656 128.57812 459.28906 130.78125 459.28906 C 132.34375 459.28906 133.45312 458.86719 134.10938 458.02344 C 134.76562 457.17969 135.16406 456.08594 135.30469 454.74219 L 142.125 454.74219 C 141.96875 456.77344 141.23438 458.69531 139.92188 460.50781 C 137.82812 463.42969 134.72656 464.89062 130.61719 464.89062 C 126.50781 464.89062 123.48438 463.67188 121.54688 461.23438 C 119.60938 458.79688 118.64062 455.63281 118.64062 451.74219 C 118.64062 447.35156 119.71094 443.9375 121.85156 441.5 C 123.99219 439.0625 126.94531 437.84375 130.71094 437.84375 z M 239.375 437.84375 C 239.5 437.84375 239.60156 437.85156 239.67969 437.86719 C 239.77344 437.86719 239.96875 437.875 240.26562 437.89062 L 240.26562 444.73438 C 239.84375 444.6875 239.46875 444.65625 239.14062 444.64062 C 238.8125 444.625 238.54688 444.61719 238.34375 444.61719 C 235.65625 444.61719 233.85156 445.49219 232.92969 447.24219 C 232.41406 448.22656 232.15625 449.74219 232.15625 451.78906 L 232.15625 464 L 225.42969 464 L 225.42969 438.45312 L 231.80469 438.45312 L 231.80469 442.90625 C 232.83594 441.20312 233.73438 440.03906 234.5 439.41406 C 235.75 438.36719 237.375 437.84375 239.375 437.84375 z M 265.57031 437.84375 C 268.36719 437.84375 270.85156 438.39844 273.02344 439.50781 C 275.19531 440.61719 276.28125 442.71094 276.28125 445.78906 L 276.28125 457.50781 C 276.28125 458.32031 276.29688 459.30469 276.32812 460.46094 C 276.375 461.33594 276.50781 461.92969 276.72656 462.24219 C 276.94531 462.55469 277.27344 462.8125 277.71094 463.01562 L 277.71094 464 L 270.44531 464 C 270.24219 463.48438 270.10156 463 270.02344 462.54688 C 269.94531 462.09375 269.88281 461.57812 269.83594 461 C 268.91406 462 267.85156 462.85156 266.64844 463.55469 C 265.21094 464.38281 263.58594 464.79688 261.77344 464.79688 C 259.46094 464.79688 257.54688 464.14062 256.03125 462.82812 C 254.53125 461.5 253.78125 459.625 253.78125 457.20312 C 253.78125 454.0625 254.99219 451.78906 257.41406 450.38281 C 258.74219 449.61719 260.69531 449.07031 263.27344 448.74219 L 265.54688 448.46094 C 266.78125 448.30469 267.66406 448.10938 268.19531 447.875 C 269.14844 447.46875 269.625 446.83594 269.625 445.97656 C 269.625 444.92969 269.25781 444.21094 268.52344 443.82031 C 267.80469 443.41406 266.74219 443.21094 265.33594 443.21094 C 263.75781 443.21094 262.64062 443.60156 261.98438 444.38281 C 261.51562 444.96094 261.20312 445.74219 261.04688 446.72656 L 254.60156 446.72656 C 254.74219 444.49219 255.36719 442.65625 256.47656 441.21875 C 258.24219 438.96875 261.27344 437.84375 265.57031 437.84375 z M 295.08594 437.84375 C 295.21094 437.84375 295.3125 437.85156 295.39062 437.86719 C 295.48438 437.86719 295.67969 437.875 295.97656 437.89062 L 295.97656 444.73438 C 295.55469 444.6875 295.17969 444.65625 294.85156 444.64062 C 294.52344 444.625 294.25781 444.61719 294.05469 444.61719 C 291.36719 444.61719 289.5625 445.49219 288.64062 447.24219 C 288.125 448.22656 287.86719 449.74219 287.86719 451.78906 L 287.86719 464 L 281.14062 464 L 281.14062 438.45312 L 287.51562 438.45312 L 287.51562 442.90625 C 288.54688 441.20312 289.44531 440.03906 290.21094 439.41406 C 291.46094 438.36719 293.08594 437.84375 295.08594 437.84375 z M 171.60156 438.45312 L 179.10156 438.45312 L 184.42188 457.29688 L 189.85938 438.45312 L 197.03125 438.45312 L 187.82031 464 L 180.76562 464 L 171.60156 438.45312 z M 90.898438 443.28125 C 88.945312 443.28125 87.4375 443.97656 86.375 445.36719 C 85.328125 446.74219 84.804688 448.71094 84.804688 451.27344 C 84.804688 453.83594 85.328125 455.8125 86.375 457.20312 C 87.4375 458.59375 88.945312 459.28906 90.898438 459.28906 C 92.851562 459.28906 94.351562 458.59375 95.398438 457.20312 C 96.445312 455.8125 96.96875 453.83594 96.96875 451.27344 C 96.96875 448.71094 96.445312 446.74219 95.398438 445.36719 C 94.351562 443.97656 92.851562 443.28125 90.898438 443.28125 z M 157.25 443.28125 C 155.29688 443.28125 153.78906 443.97656 152.72656 445.36719 C 151.67969 446.74219 151.15625 448.71094 151.15625 451.27344 C 151.15625 453.83594 151.67969 455.8125 152.72656 457.20312 C 153.78906 458.59375 155.29688 459.28906 157.25 459.28906 C 159.20312 459.28906 160.70312 458.59375 161.75 457.20312 C 162.79688 455.8125 163.32031 453.83594 163.32031 451.27344 C 163.32031 448.71094 162.79688 446.74219 161.75 445.36719 C 160.70312 443.97656 159.20312 443.28125 157.25 443.28125 z M 209.88281 443.28125 C 208.33594 443.28125 207.13281 443.76562 206.27344 444.73438 C 205.42969 445.70312 204.89844 447.01562 204.67969 448.67188 L 215.0625 448.67188 C 214.95312 446.90625 214.41406 445.57031 213.44531 444.66406 C 212.49219 443.74219 211.30469 443.28125 209.88281 443.28125 z M 269.60156 451.57812 C 269.17969 451.84375 268.75 452.0625 268.3125 452.23438 C 267.89062 452.39062 267.30469 452.53906 266.55469 452.67969 L 265.05469 452.96094 C 263.64844 453.21094 262.64062 453.51562 262.03125 453.875 C 261 454.48438 260.48438 455.42969 260.48438 456.71094 C 260.48438 457.85156 260.79688 458.67969 261.42188 459.19531 C 262.0625 459.69531 262.83594 459.94531 263.74219 459.94531 C 265.17969 459.94531 266.5 459.52344 267.70312 458.67969 C 268.92188 457.83594 269.55469 456.29688 269.60156 454.0625 L 269.60156 451.57812 z M 313.75781 457.01562 L 320.85938 457.01562 L 320.85938 464 L 313.75781 464 L 313.75781 457.01562 z " />
    <path
       d="M 480,157.88477 V 32 H 353.0625 A 126.94215,126.94215 0 0 0 480,157.88477 Z"
       style="fill:#c0c0c0;stroke:none;stroke-width:2.1157;stroke-opacity:0.24822699;paint-order:stroke fill markers;fill-opacity:0.50236404"
       id="path14" />
  </g>
</svg>
