<?xml version="1.0" encoding="UTF-8" standalone="no"?>
<!-- Created with Inkscape (http://www.inkscape.org/) -->

<svg
   width="32"
   height="32"
   viewBox="0 0 32 32"
   version="1.1"
   id="svg1"
   inkscape:export-filename="PlayVek.svg"
   inkscape:export-xdpi="96"
   inkscape:export-ydpi="96"
   inkscape:version="1.3.2 (091e20e, 2023-11-25, custom)"
   sodipodi:docname="VEK.svg"
   xmlns:inkscape="http://www.inkscape.org/namespaces/inkscape"
   xmlns:sodipodi="http://sodipodi.sourceforge.net/DTD/sodipodi-0.dtd"
   xmlns="http://www.w3.org/2000/svg"
   xmlns:svg="http://www.w3.org/2000/svg">
  <sodipodi:namedview
     id="namedview1"
     pagecolor="#505050"
     bordercolor="#eeeeee"
     borderopacity="1"
     inkscape:showpageshadow="0"
     inkscape:pageopacity="0"
     inkscape:pagecheckerboard="0"
     inkscape:deskcolor="#505050"
     inkscape:document-units="px"
     showgrid="false"
     inkscape:zoom="17.2"
     inkscape:cx="10.813954"
     inkscape:cy="16.598837"
     inkscape:window-width="1920"
     inkscape:window-height="1027"
     inkscape:window-x="-8"
     inkscape:window-y="-8"
     inkscape:window-maximized="1"
     inkscape:current-layer="svg1">
    <inkscape:grid
       id="grid1"
       units="px"
       originx="0"
       originy="0"
       spacingx="1"
       spacingy="1"
       empcolor="#0099e5"
       empopacity="0.30196078"
       color="#0099e5"
       opacity="0.14901961"
       empspacing="4"
       dotted="false"
       gridanglex="30"
       gridanglez="30"
       visible="false" />
  </sodipodi:namedview>
  <defs
     id="defs1" />
  <path
     style="fill:#007de8;stroke:#00a0f0;stroke-width:0;stroke-linejoin:bevel;fill-opacity:1"
     d="m 0,0 h 26 l 6,6 V 32 H 6 L 0,26 V 0"
     id="path1" />
  <path
     id="rect45"
     style="opacity:1;fill:#ffffff;fill-opacity:1;stroke:#00a0f0;stroke-width:0;stroke-linejoin:bevel"
     d="M 4 6 L 4 26 L 8 26 L 8 6 L 4 6 z M 8 26 L 13.65625 26 L 18 21.65625 L 22.34375 26 L 28 26 L 20.828125 18.828125 L 21.65625 18 L 22.242188 17.414062 L 25.65625 14 L 28 11.65625 L 28 10 L 28 6 L 24 10 L 20 14 L 19.414062 14.585938 L 16.585938 17.414062 L 16 18 L 8 26 z M 10 6 L 10 10 L 21.171875 10 L 25.171875 6 L 10 6 z M 10 14 L 10 18 L 13.171875 18 L 17.171875 14 L 10 14 z M 28 14.484375 L 24.484375 18 L 28 18 L 28 14.484375 z " />
</svg>
