<?xml version="1.0" encoding="UTF-8" standalone="no"?>
<!-- Created with Inkscape (http://www.inkscape.org/) -->

<svg
   width="90"
   height="28"
   viewBox="0 0 90 28"
   version="1.1"
   id="svg1"
   inkscape:export-filename="PlayVek.svg"
   inkscape:export-xdpi="96"
   inkscape:export-ydpi="96"
   inkscape:version="1.3.2 (091e20e, 2023-11-25, custom)"
   sodipodi:docname="wordmark.svg"
   xmlns:inkscape="http://www.inkscape.org/namespaces/inkscape"
   xmlns:sodipodi="http://sodipodi.sourceforge.net/DTD/sodipodi-0.dtd"
   xmlns="http://www.w3.org/2000/svg"
   xmlns:svg="http://www.w3.org/2000/svg">
  <sodipodi:namedview
     id="namedview1"
     pagecolor="#505050"
     bordercolor="#eeeeee"
     borderopacity="1"
     inkscape:showpageshadow="0"
     inkscape:pageopacity="0"
     inkscape:pagecheckerboard="0"
     inkscape:deskcolor="#505050"
     inkscape:document-units="px"
     showgrid="true"
     inkscape:zoom="5.6568543"
     inkscape:cx="22.627417"
     inkscape:cy="38.979261"
     inkscape:window-width="1920"
     inkscape:window-height="1027"
     inkscape:window-x="-8"
     inkscape:window-y="425"
     inkscape:window-maximized="1"
     inkscape:current-layer="svg1">
    <inkscape:grid
       id="grid1"
       units="px"
       originx="0"
       originy="0"
       spacingx="1"
       spacingy="1"
       empcolor="#0099e5"
       empopacity="0.30196078"
       color="#0099e5"
       opacity="0.14901961"
       empspacing="4"
       dotted="false"
       gridanglex="30"
       gridanglez="30"
       visible="true" />
  </sodipodi:namedview>
  <defs
     id="defs1" />
  <path
     id="rect45"
     style="opacity:1;fill:#ffffff;fill-opacity:1;stroke:#00a0f0;stroke-width:0;stroke-linejoin:bevel"
     d="M 4,4 V 24 H 8 V 4 Z m 4,20 h 5.65625 L 18,19.65625 22.34375,24 H 28 L 20.828125,16.828125 21.65625,16 22.242188,15.414062 25.65625,12 28,9.65625 V 8 4 l -4,4 -4,4 -0.585938,0.585938 -2.828124,2.828124 L 16,16 Z M 10,4 v 4 h 11.171875 l 4,-4 z m 0,8 v 4 h 3.171875 l 4,-4 z M 28,12.484375 24.484375,16 H 28 Z" />
  <path
     id="text94"
     style="font-style:normal;font-variant:normal;font-weight:normal;font-stretch:normal;font-size:17px;font-family:'Chakra Petch';-inkscape-font-specification:'Chakra Petch, Normal';font-variant-ligatures:normal;font-variant-caps:normal;font-variant-numeric:normal;font-variant-east-asian:normal;letter-spacing:-1px;word-spacing:0px;opacity:1;fill:#ffffff;fill-opacity:1;stroke:#00a0f0;stroke-width:0;stroke-linejoin:bevel"
     inkscape:transform-center-x="-21.627907"
     inkscape:transform-center-y="6.0465116"
     d="M 47.839844 3.7578125 L 47.839844 15.896484 L 49.097656 15.896484 L 49.097656 12.054688 L 51.085938 12.054688 L 53.738281 15.896484 L 54.8125 15.896484 L 55.132812 15.896484 L 56.15625 15.896484 L 57.259766 12.683594 L 62.224609 12.683594 L 63.330078 15.896484 L 64.671875 15.896484 L 60.439453 3.9960938 L 59.044922 3.9960938 L 54.921875 15.589844 L 52.107422 11.509766 L 54.962891 7.4296875 L 53.568359 7.4296875 L 51.085938 10.931641 L 49.097656 10.931641 L 49.097656 3.7578125 L 47.839844 3.7578125 z M 30 3.9960938 L 34.199219 15.896484 L 35.59375 15.896484 L 39.792969 3.9960938 L 38.449219 3.9960938 L 34.914062 14.349609 L 34.878906 14.349609 L 31.34375 3.9960938 L 30 3.9960938 z M 59.724609 5.4921875 L 59.759766 5.4921875 L 61.849609 11.560547 L 57.652344 11.560547 L 59.724609 5.4921875 z M 40.697266 7.4296875 L 39.132812 8.9941406 L 39.132812 14.332031 L 40.697266 15.896484 L 44.962891 15.896484 L 46.527344 14.332031 L 46.527344 13.294922 L 45.269531 13.294922 L 45.269531 13.941406 L 44.419922 14.773438 L 41.240234 14.773438 L 40.390625 13.941406 L 40.390625 12.037109 L 46.544922 12.037109 L 46.544922 8.9941406 L 44.962891 7.4296875 L 40.697266 7.4296875 z M 65.287109 7.4296875 L 65.287109 15.896484 L 66.544922 15.896484 L 66.544922 10.388672 L 68.380859 8.5527344 L 69.808594 8.5527344 L 70.660156 9.3847656 L 70.660156 15.896484 L 71.882812 15.896484 L 71.882812 9.7421875 L 73.074219 8.5527344 L 74.943359 8.5527344 L 75.792969 9.3847656 L 75.792969 15.896484 L 77.050781 15.896484 L 77.050781 8.9941406 L 75.488281 7.4296875 L 72.818359 7.4296875 L 71.492188 8.7558594 L 70.166016 7.4296875 L 68.142578 7.4296875 L 66.511719 9.0625 L 66.511719 7.4296875 L 65.287109 7.4296875 z M 78.515625 7.4296875 L 78.515625 19.5 L 79.775391 19.5 L 79.775391 14.671875 L 81.167969 15.896484 L 84.431641 15.896484 L 85.996094 14.332031 L 85.996094 8.9941406 L 84.431641 7.4296875 L 81.253906 7.4296875 L 79.740234 8.9433594 L 79.740234 7.4296875 L 78.515625 7.4296875 z M 41.240234 8.5527344 L 44.435547 8.5527344 L 45.287109 9.3847656 L 45.287109 10.949219 L 40.390625 10.949219 L 40.390625 9.3847656 L 41.240234 8.5527344 z M 81.59375 8.5527344 L 83.888672 8.5527344 L 84.738281 9.3847656 L 84.738281 13.941406 L 83.888672 14.773438 L 81.40625 14.773438 L 79.775391 13.294922 L 79.775391 10.371094 L 81.59375 8.5527344 z " />
</svg>
